# Blender 4.0.2
# www.blender.org
mtllib building.mtl
o Cube
v -1.469608 -0.000000 1.021739
v -1.469608 4.885840 1.021739
v -1.469608 -0.000000 -0.978261
v -1.469608 4.885840 -0.978261
v 0.530392 -0.000000 1.021739
v 0.530392 4.885840 1.021739
v 0.530392 -0.000000 -0.978261
v 0.530392 4.885840 -0.978261
v -1.469608 -0.000000 0.021739
v -1.469608 2.442920 1.021739
v -1.469608 4.885840 0.021739
v -1.469608 2.442920 -0.978261
v -0.469608 -0.000000 -0.978261
v -0.469608 4.885840 -0.978261
v 0.530392 2.442920 -0.978261
v 0.530392 -0.000000 0.021739
v 0.530392 4.885840 0.021739
v 0.530392 2.442920 1.021739
v -0.469608 -0.000000 1.021739
v -0.469608 4.885840 1.021739
v -0.469608 4.885840 0.021739
v -0.469608 2.442920 -0.978261
v -1.469608 2.442920 0.021739
v 0.530392 -0.000000 -0.478261
v 0.530392 -0.000000 0.521739
v 0.530392 1.221460 -0.478261
v 0.530392 1.221460 0.521739
v 0.628275 -0.000000 0.521739
v 0.628275 -0.000000 0.021739
v 0.628275 1.221460 0.021739
v 0.628275 -0.000000 -0.478261
v 0.628275 1.221460 -0.478261
v 0.628275 1.221460 0.521739
v 0.530392 -0.000000 1.021739
v 0.530392 4.885840 1.021739
v 0.530392 -0.000000 -0.978261
v 0.530392 4.885840 -0.978261
v 0.530392 2.442920 -0.978261
v 0.530392 4.885840 0.021739
v 0.530392 2.442920 1.021739
v 0.530392 -0.000000 -0.478261
v 0.530392 -0.000000 0.521739
v 0.530392 1.221460 -0.478261
v 0.530392 1.221460 0.521739
v 0.545074 1.221460 0.021739
vn -0.0000 1.0000 -0.0000
vn -0.0000 -0.0000 1.0000
vn -0.0000 -0.0000 -1.0000
vn -1.0000 -0.0000 -0.0000
vn -0.0000 -1.0000 -0.0000
vn -0.0000 -0.0000 -0.0000
vn 1.0000 -0.0000 -0.0000
vn 1.0000 0.0009 -0.0000
vt 0.000000 0.501594
vt 0.000000 1.003010
vt 0.999958 0.496414
vt 0.988000 -0.008237
vt 1.011915 1.001064
vt 0.503316 0.158002
vt 0.628295 0.158002
vt 0.628295 0.282980
vt 0.503316 0.282980
vt 0.378338 0.158002
vt 0.378338 0.282980
vt 0.378338 0.033024
vt 0.503316 0.033024
vt 0.628295 0.033024
vt 0.996793 0.498368
vt 1.000070 1.000299
vt 0.863046 1.003866
vt 0.726022 1.007433
vt 0.722745 0.505501
vt 0.719468 0.003570
vt 0.856492 0.000003
vt 0.999827 0.002525
vt 0.000000 -0.001417
vt 0.881838 0.486383
vt 0.881838 1.001428
vt 0.743160 1.001429
vt 0.743160 0.486383
vt 0.740004 -0.003061
vt 0.878682 -0.003061
vt 0.995313 -0.003061
vt 0.998469 0.486382
vt 0.722360 0.024918
vt 0.859769 0.024918
vt 0.859769 0.516132
vt 0.722360 0.516132
vt 0.997178 0.516132
vt 0.997178 1.007346
vt 0.859769 1.007346
vt 0.722360 1.007346
vt 0.998469 1.001428
vt 0.696479 0.051062
vt 0.696479 0.023971
vt 0.250043 0.749957
vt 0.250043 0.687468
vt 0.500000 0.624978
vt 0.500000 0.749957
vt 0.500000 0.500000
vt 0.628275 0.042918
vt 0.628275 0.105407
vt 0.696479 -0.003119
vt 0.628275 0.167897
vt 0.565785 0.167897
vt 0.565785 0.042918
vt 0.312532 0.562489
vt 0.250043 0.562489
vt 0.997177 0.024918
vt 0.312532 0.687468
vt 0.250043 0.500000
vt 0.259177 0.464930
vt 0.261873 0.999183
vt 0.132131 1.000932
vt 0.002389 1.002681
vt -0.000307 0.468429
vt 0.129435 0.466680
vt 0.515032 -0.000300
vt 0.586786 -0.000484
vt 0.658541 -0.000300
vt 0.658103 0.001852
vt 0.729825 0.001902
vt 0.729795 0.465151
vt 0.727794 0.995236
vt 0.584354 0.995218
vt 0.441807 0.998613
vt 0.443778 0.468486
vt 0.443748 0.005237
vt 0.514564 0.001852
vt 0.511090 0.366527
vt 0.511090 0.009669
vt 0.511090 0.063849
vt 0.511090 0.118029
vt 0.511090 0.172209
vt 0.511090 0.226389
vt 0.511090 0.253479
vt 0.511090 0.280569
vt 0.511090 0.307659
vt 0.511090 0.334750
s 0
usemtl Material.001
f 15/1/1 8/2/2 37/2/1 38/1/2
f 18/3/1 5/4/2 34/4/1 40/3/2
f 6/5/1 18/3/2 40/3/1 35/5/2
f 21/6/1 11/7/1 2/8/1 20/9/1
f 17/10/1 21/6/1 20/9/1 6/11/1
f 8/12/1 14/13/1 21/6/1 17/10/1
f 14/13/1 4/14/1 11/7/1 21/6/1
f 18/15/2 6/16/2 20/17/2 2/18/2 10/19/2 1/20/2 19/21/2 5/22/2
f 7/23/1 15/1/2 38/1/1 36/23/2
f 22/24/3 14/25/3 8/26/3 15/27/3
f 7/28/3 13/29/3 22/24/3 15/27/3
f 13/29/3 3/30/3 12/31/3 22/24/3
f 3/32/4 9/33/4 23/34/4 12/35/4
f 10/36/4 2/37/4 11/38/4 23/34/4
f 23/34/4 11/38/4 4/39/4 12/35/4
f 12/31/3 4/40/3 14/25/3 22/24/3
f 25/41/5 16/42/5 29/42/5 28/41/5
f 5/43/6 25/44/6 42/44/6 34/43/6
f 17/45/6 6/46/6 35/46/6 39/45/6
f 8/47/6 17/45/6 39/45/6 37/47/6
f 26/48/1 43/48/1 45/49/1 30/49/1 32/48/1
f 16/42/5 24/50/5 31/50/5 29/42/5
f 27/51/2 25/52/2 28/52/2 33/51/2
f 24/53/3 26/48/3 32/48/3 31/53/3
f 26/54/1 24/55/2 41/55/1 43/54/2
f 9/33/4 1/56/4 10/36/4 23/34/4
f 25/44/1 27/57/2 44/57/1 42/44/2
f 24/55/6 7/58/6 36/58/6 41/55/6
f 30/49/1 45/49/1 44/51/1 27/51/1 33/51/1
f 31/59/7 32/60/7 30/61/7 33/62/7 28/63/7 29/64/7
f 44/65/8 45/66/8 43/67/8 41/68/8 36/69/8 38/70/8 37/71/8 39/72/8 35/73/8 40/74/8 34/75/8 42/76/8
f 19/77/5 1/78/5 9/79/5 3/80/5 13/81/5 7/82/5 24/83/5 16/84/5 25/85/5 5/86/5
